<?xml version="1.0" encoding="utf-8"?>
<!-- Generator: Adobe Illustrator 16.0.3, SVG Export Plug-In . SVG Version: 6.00 Build 0)  -->
<!DOCTYPE svg PUBLIC "-//W3C//DTD SVG 1.1//EN" "http://www.w3.org/Graphics/SVG/1.1/DTD/svg11.dtd">
<svg version="1.1" id="Capa_1" xmlns="http://www.w3.org/2000/svg" xmlns:xlink="http://www.w3.org/1999/xlink" x="0px" y="0px"
	 width="1920px" height="990px" viewBox="0 0 1920 990" enable-background="new 0 0 1920 990" xml:space="preserve">
<rect fill="#F2F2F2" width="1920" height="990"/>
<path fill="#3B88C9" d="M842.967,193.176c-17.095,8.718-38.021,1.926-46.738-15.168l0,0c-8.718-17.095-1.926-38.021,15.168-46.738
	l95.125-48.509c17.095-8.718,38.021-1.926,46.738,15.168l0,0c8.718,17.095,1.926,38.021-15.168,46.738L842.967,193.176z"/>
<path fill="#3B88C9" d="M1553.567,459.48c-5.656,18.337-25.107,28.616-43.444,22.96l0,0c-18.337-5.656-28.616-25.106-22.96-43.443
	l31.474-102.037c5.656-18.337,25.106-28.617,43.443-22.96l0,0c18.337,5.656,28.617,25.106,22.961,43.443L1553.567,459.48z"/>
<path fill="#FFFFFF" d="M285.832,802.3c16.845,9.192,23.048,30.299,13.856,47.144l0,0c-9.191,16.846-30.298,23.05-47.143,13.858
	l-93.733-51.147c-16.846-9.192-23.049-30.299-13.858-47.145l0,0c9.191-16.845,30.299-23.049,47.144-13.857L285.832,802.3z"/>
<path fill="#FFFFFF" d="M1212.043,162.621c-0.216,19.189-15.946,34.568-35.135,34.353l0,0
	c-19.188-0.216-34.569-15.947-34.353-35.134l1.201-106.773c0.217-19.189,15.947-34.569,35.136-34.354l0,0
	c19.188,0.216,34.568,15.947,34.353,35.135L1212.043,162.621z"/>
<path fill="#11B278" d="M1377.374,744.29c2.587,19.015-10.729,36.526-29.744,39.112l0,0c-19.015,2.587-36.526-10.73-39.113-29.744
	l-14.396-105.804c-2.586-19.016,10.73-36.527,29.745-39.114l0,0c19.014-2.588,36.526,10.731,39.113,29.744L1377.374,744.29z"/>
<path fill="#11B278" d="M825.884,615.411c-6.3,18.127-26.102,27.714-44.227,21.411l0,0c-18.126-6.3-27.713-26.103-21.412-44.228
	l35.059-100.858c6.302-18.127,26.103-27.714,44.229-21.412l0,0c18.125,6.299,27.712,26.104,21.412,44.228L825.884,615.411z"/>
<circle fill="#11B278" cx="179.102" cy="153.136" r="52.542"/>
<circle fill="#3B88C9" cx="957.061" cy="807.227" r="52.543"/>
<circle fill="#FFFFFF" cx="1765.187" cy="618.865" r="52.542"/>
<circle fill="#3B88C9" cx="114.186" cy="566.322" r="52.543"/>
<circle fill="#11B278" cx="1690.61" cy="117.169" r="52.542"/>
<path fill="#11B278" d="M599.839,156.282c15.547,11.249,19.032,32.971,7.783,48.517l0,0c-11.249,15.547-32.972,19.032-48.518,7.783
	l-86.51-62.591c-15.547-11.25-19.033-32.972-7.784-48.519l0,0c11.248-15.547,32.972-19.031,48.518-7.784L599.839,156.282z"/>
<circle fill="#FFFFFF" cx="1114.696" cy="415.848" r="52.542"/>
<path fill="#3B88C9" d="M1638.358,917.446c-17.503,7.866-38.069,0.055-45.937-17.448l0,0c-7.866-17.503-0.054-38.07,17.449-45.937
	l97.396-43.772c17.503-7.866,38.069-0.054,45.936,17.449l0,0c7.866,17.503,0.054,38.069-17.449,45.937L1638.358,917.446z"/>
<path fill="#3B88C9" d="M506.296,473.678c5.274,18.45-5.406,37.683-23.855,42.958l0,0c-18.45,5.275-37.685-5.405-42.959-23.855
	l-29.353-102.666c-5.275-18.45,5.406-37.684,23.856-42.958l0,0c18.45-5.276,37.683,5.405,42.958,23.855L506.296,473.678z"/>
<circle fill="#11B278" cx="561.679" cy="859.769" r="52.542"/>
</svg>
