<?xml version="1.0" encoding="utf-8"?>
<!-- Generator: Adobe Illustrator 16.0.3, SVG Export Plug-In . SVG Version: 6.00 Build 0)  -->
<!DOCTYPE svg PUBLIC "-//W3C//DTD SVG 1.1//EN" "http://www.w3.org/Graphics/SVG/1.1/DTD/svg11.dtd">
<svg version="1.1" id="Capa_1" xmlns="http://www.w3.org/2000/svg" xmlns:xlink="http://www.w3.org/1999/xlink" x="0px" y="0px"
	 width="800px" height="1200px" viewBox="0 0 800 1200" enable-background="new 0 0 800 1200" xml:space="preserve">
<rect fill="#FBCAC7" width="800" height="1200"/>
<path fill="#EDBDBB" d="M946.123,1296.021c0,9.389-7.611,17-17,17H479.449c-9.389,0-17-7.611-17-17V846.347c0-9.389,7.611-17,17-17
	h449.674c9.389,0,17,7.611,17,17V1296.021z"/>
<circle fill="#BDE4E8" cx="100.204" cy="433.266" r="223.469"/>
<circle fill="#BCACD4" cx="283.877" cy="585.163" r="66.327"/>
<g>
	<circle fill="#FFFFFF" cx="731.87" cy="244.105" r="14.853"/>
	<circle fill="#FFFFFF" cx="772.402" cy="266.293" r="14.852"/>
	<circle fill="#FFFFFF" cx="813.658" cy="288.877" r="14.852"/>
	<circle fill="#FFFFFF" cx="710.906" cy="281.543" r="14.852"/>
	<circle fill="#FFFFFF" cx="751.438" cy="303.731" r="14.852"/>
	<circle fill="#FFFFFF" cx="792.694" cy="326.315" r="14.852"/>
	<circle fill="#FFFFFF" cx="690.376" cy="318.187" r="14.852"/>
	<circle fill="#FFFFFF" cx="730.909" cy="340.375" r="14.852"/>
	<circle fill="#FFFFFF" cx="772.165" cy="362.958" r="14.852"/>
</g>
<path fill="#EDBDBB" d="M834.33,852.248c11.236,22.229,2.327,49.356-19.902,60.594l0,0c-22.228,11.236-49.356,2.327-60.594-19.901
	L638.835,665.454c-11.236-22.229-2.326-49.357,19.901-60.594l0,0c22.229-11.238,49.357-2.327,60.595,19.901L834.33,852.248z"/>
</svg>
